<svg xmlns="http://www.w3.org/2000/svg" width="680" height="146.667" viewBox="0 0 680 146.66667"><defs><clipPath id="a"><path d="M0 110h510V0H0z"/></clipPath></defs><g clip-path="url(#a)" transform="matrix(1.33333 0 0 -1.33333 0 146.667)"><path d="M71.45 5.481c36.697 0 66.45.477 66.45 1.066 0 .592-29.753 1.07-66.45 1.07C34.75 7.616 5 7.138 5 6.546 5 5.957 34.75 5.48 71.45 5.48" fill="#0492d2" fill-rule="evenodd"/><path d="M37.862 28.599c-6.16 8.03-9.24 17.395-9.24 28.088 0 12.808 4.522 23.737 13.572 32.783 9.05 9.053 19.978 13.576 32.786 13.576 9.355 0 17.905-2.53 25.652-7.592 7.747-5.061 13.46-11.694 17.14-19.901H97.987c-5.443 7.208-13 10.813-22.665 10.813-8.2 0-15.105-2.876-20.705-8.627-5.599-5.753-8.399-12.73-8.399-20.937 0-8.282 2.8-15.3 8.4-21.052a30.809 30.809 0 0 1 3.611-3.178c-4.743-1.608-9.549-2.831-14.244-3.491a48.675 48.675 0 0 0-6.123-.482m78.814 29.123h4.893c0-13.514-3.988-24.35-13.632-33.994-9.087-9.086-20.072-13.632-32.956-13.632-10.1 0-19.028 2.814-26.791 8.44 8.742 1.676 17.563 4.786 25.806 8.614.438-.018.88-.03 1.326-.03 5.525 0 10.508 1.287 14.958 3.856 4.447 2.568 7.939 6.156 10.468 10.759h-2.052c6.468 4.73 12.659 10.11 17.98 15.987" fill="#0492d2"/><path d="M66.007 41.734v15.987h35.203c-6.23-5.556-13.234-10.457-20.016-14.453a140.126 140.126 0 0 0-2.674-1.534z" fill="#0492d2"/><path d="M236.203 107.169c5.118 0 9.503-1.811 13.15-5.426 3.652-3.618 5.473-7.986 5.473-13.107 0-5.15-1.815-9.541-5.448-13.173-3.635-3.635-8.026-5.451-13.175-5.451-5.122 0-9.49 1.81-13.108 5.426-3.616 3.618-5.426 8.02-5.426 13.198 0 5.12 1.81 9.489 5.426 13.107 3.618 3.615 7.986 5.426 13.108 5.426m-11.727-18.533c0-3.278 1.134-6.07 3.411-8.367 2.266-2.3 5.05-3.453 8.338-3.453 3.32 0 6.117 1.154 8.384 3.453 2.28 2.297 3.412 5.089 3.412 8.367 0 3.25-1.133 6.026-3.412 8.324-2.267 2.299-5.064 3.449-8.384 3.449-3.226 0-5.993-1.15-8.293-3.45-2.307-2.297-3.456-5.072-3.456-8.323" fill="#0492d2" fill-rule="evenodd"/><path d="M175.43 82.66v6.39h22.21v-.414c0-5.15-1.815-9.54-5.447-13.173-3.635-3.635-8.027-5.45-13.176-5.45-5.121 0-9.49 1.81-13.108 5.424-3.618 3.62-5.425 8.021-5.425 13.2 0 5.12 1.807 9.488 5.425 13.106 3.619 3.615 7.987 5.426 13.108 5.426 3.739 0 7.157-1.013 10.254-3.034 3.097-2.025 5.38-4.676 6.852-7.955h-7.91c-2.177 2.881-5.197 4.32-9.057 4.32-3.284 0-6.041-1.149-8.281-3.446-2.236-2.302-3.355-5.09-3.355-8.37 0-3.31 1.119-6.118 3.355-8.416 2.24-2.298 4.997-3.452 8.28-3.452 2.206 0 4.2.516 5.976 1.543 1.779 1.027 3.176 2.46 4.188 4.301zm24.188 24.188h6.808v-30.26h10.668v-6.162h-17.476zm58.035 0h5.978c3.19 0 5.84-.277 7.956-.83 2.114-.549 3.649-1.746 4.599-3.587.95-1.835 1.425-3.664 1.425-5.47 0-1.78-.381-3.252-1.15-4.417a21.09 21.09 0 0 0-1.15-1.379 6.228 6.228 0 0 0-1.102-.965c1.5-.61 2.688-1.433 3.562-2.459.875-1.029 1.405-2.109 1.588-3.243.186-1.136.276-2.069.276-2.806 0-1.347-.183-2.614-.553-3.793-.366-1.18-1.156-2.499-2.37-3.957-1.208-1.455-2.917-2.405-5.125-2.85-2.21-.444-4.704-.666-7.493-.666h-6.441zm6.807-14.163h1.058c.674 0 1.348.068 2.022.205.674.14 1.333.46 1.977.965.645.505 1.058.998 1.243 1.472.184.477.274.942.274 1.402 0 .891-.228 1.65-.688 2.276-.46.63-1.12 1.051-1.977 1.266-.857.214-1.793.325-2.806.325h-1.103zm0-6.165v-9.704l1.884-.045 2.025.093a6.158 6.158 0 0 1 2.507.897c.75.476 1.286 1.075 1.608 1.794.324.721.482 1.418.482 2.092a4.773 4.773 0 0 1-.875 2.781c-.58.843-1.47 1.404-2.665 1.677-1.195.28-2.498.415-3.908.415h-.83zm30.627 20.328h5.287l14.947-36.422h-7.313L303.64 81.14h-11.45l-4.322-10.713h-7.452l4.558 11.317h-3.018l1.87 6.255h3.668zm-.643-19.454h6.715l-3.453 8.83zm22.487 19.454h6.806v-30.26h10.668v-6.162H316.93zm-39.262-71.657a8.807 8.807 0 0 0-2.492-1.525 7.743 7.743 0 0 0-2.97-.579c-2.871 0-5.324 1.041-7.36 3.123-2.036 2.078-3.055 4.568-3.055 7.46 0 2.895 1.019 5.351 3.055 7.362 2.036 2.013 4.489 3.017 7.36 3.017 2.262 0 4.083-.597 5.462-1.796v1.29h4.85V33.665h-4.85zm-11.125 8.378c0-1.517.536-2.822 1.61-3.92 1.075-1.094 2.369-1.644 3.884-1.644 1.514 0 2.817.542 3.9 1.628 1.085 1.085 1.629 2.397 1.629 3.936 0 1.516-.544 2.804-1.63 3.867-1.082 1.063-2.385 1.594-3.9 1.594-1.491 0-2.78-.53-3.866-1.594-1.085-1.063-1.627-2.35-1.627-3.867m35.82-9.903h-4.883v10.118c0 1.108-.13 2.103-.392 2.995-.26.893-.722 1.534-1.391 1.93-.668.393-1.328.59-1.982.59a4.058 4.058 0 0 1-2.002-.506c-.702-.452-1.153-1.06-1.36-1.842-.203-.78-.304-1.765-.304-2.964V33.666h-4.851v19.876h4.31v-1.526a7.004 7.004 0 0 0 2.459 1.508 8.242 8.242 0 0 0 2.797.491c1.176 0 2.47-.327 3.883-.98 1.417-.657 2.386-1.788 2.919-3.394.534-1.604.798-3.369.798-5.29zm17.57 26.12h4.854v-26.12h-4.853v1.661c-.677-.657-1.5-1.194-2.474-1.61a7.447 7.447 0 0 0-2.986-.63c-2.871 0-5.327 1.03-7.361 3.088-2.036 2.056-3.054 4.533-3.054 7.43 0 2.892 1.018 5.357 3.054 7.393 2.034 2.036 4.49 3.051 7.36 3.051 2.217 0 4.036-.62 5.46-1.864zm-5.358-10.55c-1.56 0-2.882-.545-3.968-1.63-1.085-1.086-1.626-2.409-1.626-3.969 0-1.537.546-2.845 1.643-3.92 1.095-1.072 2.414-1.61 3.95-1.61 1.538 0 2.853.53 3.935 1.597 1.086 1.06 1.63 2.371 1.63 3.933 0 1.537-.538 2.854-1.613 3.951-1.072 1.097-2.391 1.647-3.951 1.647m33.415 4.07h-4.853a4.327 4.327 0 0 1-.626 1.542c-.305.466-.753.776-1.34.934a5.596 5.596 0 0 1-.713.067c-.293 0-.572-.05-.832-.152s-.57-.332-.934-.696c-.36-.36-.541-.913-.541-1.662 0-.225.05-.564.153-1.017.1-.45.397-.869.883-1.256.484-.383 1.125-.687 1.917-.916l.71-.203c2.126-.677 3.704-1.554 4.733-2.629 1.029-1.074 1.607-2.165 1.73-3.273.125-1.109.187-1.786.187-2.037a9.81 9.81 0 0 0-.798-3.849c-.533-1.255-1.261-2.228-2.188-2.916-.928-.69-1.82-1.17-2.68-1.44a8.357 8.357 0 0 0-2.543-.41c-1.176 0-2.408.304-3.697.917-1.288.61-2.318 1.604-3.088 2.983a9.08 9.08 0 0 0-1.154 4.478h4.817c.113-.834.299-1.519.56-2.053.26-.53.678-.896 1.256-1.102.575-.203 1.035-.305 1.373-.305.748 0 1.47.274 2.172.816.699.541 1.049 1.39 1.049 2.543 0 .228-.036.578-.115 1.052-.082.477-.381.934-.9 1.373-.522.44-1.356.9-2.512 1.373l-.711.305c-2.036.863-3.545 1.777-4.53 2.75-.981.973-1.474 2.318-1.474 4.035v.578c0 1.2.254 2.397.762 3.596.509 1.2 1.175 2.072 2 2.63.828.552 1.592.927 2.292 1.118a7.987 7.987 0 0 0 2.103.287c1.356 0 2.606-.304 3.75-.916 1.14-.609 2.057-1.543 2.747-2.798.689-1.255 1.035-2.504 1.035-3.747m2.169 7.225h12.688v-4.715h-7.668v-6.343h7.668V44.69h-7.668v-6.308h7.668v-4.715H350.16zm24.527 0h3.9l11.026-26.864h-5.394l-3.224 7.901h-8.446l-3.19-7.9h-5.493zm-.474-14.349h4.949l-2.544 6.511zm16.585 14.35h5.019V38.208h7.872v-4.543h-12.891z" fill="#0492d2"/><path d="M241.55 47.927h-81.066v-1.999h81.066zm263.45 0h-81.066v-1.999H505z" fill="#0492d2" fill-rule="evenodd"/><path d="M127.823 95.393c8.04-14.561-10.894-41.356-42.293-59.86C54.135 17.03 22.16 13.835 14.12 28.39c-5.042 9.129.524 23.07 13.12 36.763a52.215 52.215 0 0 1-.678-8.466c0-1.053.032-2.096.088-3.125-5.56-8.031-7.54-15.42-4.699-20.56 6.22-11.258 33.213-7.458 60.285 8.494 27.073 15.955 43.98 38.02 37.76 49.283-2.708 4.9-9.35 6.946-18.219 6.385l-.019.01c-3.478 2.274-7.11 4.054-10.889 5.345 17.653 4.117 31.946 1.937 36.954-7.126M161.577 3.09l6.334 16.52h2.405l6.727-16.52h-2.49L172.64 8.1h-6.954l-1.79-5.008zm4.752 6.786h5.63l-1.724 4.58a57.504 57.504 0 0 0-1.184 3.448 23.76 23.76 0 0 0-.91-3.18zm17.49-6.785v16.52h2.195V5.03h8.122V3.09zm18.387 0v16.52h2.191V5.03h8.122V3.09zm17.414 6.99h6.275V8.05h-6.275zm12.073-6.99l6.334 16.52h2.405l6.727-16.52h-2.487l-1.915 5.008h-6.954l-1.79-5.008zm4.752 6.785h5.63l-1.725 4.58a58.11 58.11 0 0 0-1.183 3.448 23.181 23.181 0 0 0-.91-3.18zm17.631-6.785v16.52h7.321c1.472 0 2.592-.15 3.36-.446.763-.297 1.373-.818 1.832-1.568.457-.75.682-1.582.682-2.49 0-1.17-.378-2.161-1.136-2.963-.758-.805-1.926-1.313-3.51-1.532.58-.277 1.017-.552 1.32-.821.636-.587 1.24-1.32 1.807-2.2l2.856-4.5h-2.729l-2.186 3.438c-.635.995-1.162 1.753-1.57 2.28-.418.528-.788.89-1.115 1.103a3.348 3.348 0 0 1-.995.44c-.246.048-.649.077-1.216.077h-2.53V3.09zm2.191 9.23h4.69c1.002 0 1.78.104 2.341.31.558.206.987.536 1.275.993.293.453.44.945.44 1.48 0 .778-.283 1.426-.846 1.929-.568.505-1.458.755-2.68.755h-5.22zm20.164-1.187c0 2.734.74 4.88 2.214 6.432 1.472 1.548 3.372 2.32 5.703 2.32 1.525 0 2.898-.363 4.125-1.09a7.073 7.073 0 0 0 2.797-3.046c.647-1.3.968-2.778.968-4.425 0-1.675-.339-3.175-1.015-4.492-.677-1.322-1.636-2.321-2.875-2.998a8.198 8.198 0 0 0-4.012-1.021c-1.56 0-2.947.379-4.174 1.129a7.237 7.237 0 0 0-2.783 3.07 9.323 9.323 0 0 0-.948 4.12m2.262-.04c0-1.987.535-3.553 1.605-4.694 1.068-1.142 2.411-1.715 4.027-1.715 1.644 0 2.994.575 4.058 1.729 1.063 1.153 1.593 2.79 1.593 4.915 0 1.343-.225 2.515-.679 3.514-.454 1-1.12 1.776-1.994 2.327-.874.549-1.856.826-2.945.826-1.545 0-2.876-.531-3.99-1.591-1.117-1.063-1.675-2.831-1.675-5.31m33.587 8.517h2.192V10.07c0-1.661-.189-2.981-.56-3.956-.377-.973-1.057-1.77-2.032-2.38-.979-.612-2.262-.92-3.852-.92-1.543 0-2.806.265-3.788.798-.986.536-1.684 1.306-2.106 2.319-.417 1.01-.629 2.39-.629 4.139v9.54h2.194v-9.537c0-1.433.133-2.496.398-3.17a2.992 2.992 0 0 1 1.371-1.574c.645-.37 1.437-.552 2.371-.552 1.6 0 2.741.364 3.421 1.09.682.732 1.02 2.13 1.02 4.206zm12.23-16.52v16.52h2.246l8.666-12.967V19.61h2.101V3.09h-2.248l-8.665 12.97V3.09zm23.095 0v16.52h5.691c1.283 0 2.264-.077 2.941-.235.945-.22 1.754-.614 2.423-1.183.874-.74 1.522-1.676 1.954-2.824.435-1.145.651-2.456.651-3.928 0-1.254-.149-2.366-.439-3.336-.294-.967-.672-1.772-1.129-2.406-.459-.634-.96-1.133-1.506-1.497-.54-.364-1.2-.64-1.97-.83-.773-.188-1.656-.281-2.657-.281zm2.191 1.939h3.522c1.09 0 1.944.1 2.561.303.621.203 1.111.49 1.481.858.516.517.92 1.22 1.206 2.094.291.877.435 1.94.435 3.19 0 1.728-.285 3.059-.849 3.99-.564.93-1.252 1.554-2.064 1.87-.584.229-1.529.338-2.825.338h-3.467zm33.61-1.94v16.52h6.198c1.261 0 2.271-.164 3.037-.498a3.91 3.91 0 0 0 1.79-1.546c.433-.694.65-1.421.65-2.18 0-.705-.194-1.37-.575-1.99-.38-.627-.956-1.13-1.729-1.512.998-.293 1.77-.793 2.304-1.5.536-.705.807-1.541.807-2.502a4.82 4.82 0 0 0-.494-2.16c-.327-.666-.73-1.176-1.213-1.54-.479-.355-1.083-.63-1.804-.816-.728-.182-1.616-.275-2.668-.275zm2.192 9.577h3.573c.967 0 1.663.066 2.084.193.555.163.975.44 1.258.826.28.384.422.866.422 1.444 0 .549-.129 1.035-.397 1.45a2 2 0 0 1-1.129.863c-.484.154-1.325.23-2.51.23h-3.3zm0-7.637h4.114c.708 0 1.204.026 1.492.08.502.087.922.239 1.261.452.341.208.617.517.834.922.22.402.327.868.327 1.395 0 .62-.157 1.153-.477 1.61a2.466 2.466 0 0 1-1.316.96c-.556.185-1.362.279-2.414.279h-3.82zm19.746-1.94v16.52h11.928v-1.937h-9.737v-5.076h9.111v-1.938h-9.11v-5.63h10.13V3.092zm25.54 0v14.583h-5.448v1.938h13.083v-1.938h-5.445V3.09zm19.67 0v14.583h-5.444v1.938h13.076v-1.938h-5.436V3.09zm15.935 0v16.52h11.93v-1.937h-9.737v-5.076h9.11v-1.938h-9.11v-5.63h10.125V3.092zm21.805 0v16.52h7.321c1.466 0 2.59-.15 3.35-.445.767-.297 1.377-.818 1.84-1.568.456-.75.681-1.582.681-2.49 0-1.17-.378-2.161-1.134-2.963-.76-.805-1.928-1.313-3.513-1.532.581-.277 1.02-.552 1.32-.821.637-.587 1.24-1.32 1.805-2.2l2.86-4.5h-2.73l-2.189 3.438a31.999 31.999 0 0 1-1.568 2.28c-.417.528-.79.89-1.117 1.103a3.305 3.305 0 0 1-.993.44c-.248.048-.648.077-1.218.077h-2.527V3.09zm2.188 9.23h4.693c1 0 1.771.105 2.335.31.564.207.993.537 1.275.994.293.453.44.945.44 1.48 0 .778-.283 1.426-.846 1.929-.565.505-1.455.755-2.674.755h-5.223z" fill="#33b652" fill-rule="evenodd"/><path d="M362.45 107.186c5.124 0 9.512-1.81 13.161-5.432 3.655-3.62 5.48-7.995 5.48-13.119 0-5.155-1.819-9.549-5.454-13.187-3.638-3.634-8.032-5.453-13.187-5.453-5.124 0-9.498 1.81-13.119 5.43-3.62 3.622-5.432 8.028-5.432 13.21 0 5.125 1.811 9.499 5.432 13.12 3.621 3.62 7.995 5.432 13.12 5.432m-11.74-18.551c0-3.283 1.135-6.075 3.414-8.376 2.273-2.302 5.056-3.453 8.347-3.453 3.323 0 6.123 1.152 8.393 3.453 2.278 2.3 3.412 5.092 3.412 8.375 0 3.255-1.134 6.03-3.412 8.334-2.27 2.299-5.07 3.449-8.393 3.449-3.228 0-5.998-1.15-8.299-3.45-2.31-2.302-3.463-5.078-3.463-8.332m32.727 2.117h11.968v-6.03h-11.968zm16.112 16.109h9.988c3.1 0 5.677-.43 7.732-1.285 2.057-.861 3.636-2.41 4.742-4.651 1.105-2.24 1.655-4.326 1.655-6.26 0-2.392-.572-4.434-1.726-6.121-1.15-1.688-2.39-2.898-3.728-3.637-1.334-.737-2.646-1.182-3.934-1.334l9.62-13.164h-8.193l-9.346 12.656V70.41h-6.81zm11.92-17.628c1.502 0 2.794.538 3.87 1.61 1.071 1.077 1.61 2.38 1.61 3.914 0 1.534-.522 2.84-1.565 3.91-1.044 1.077-2.35 1.615-3.915 1.615h-5.11v-11.05zm14.594 17.628h6.811V70.41h-6.81zm11.043 0h6.122l15.838-23.196v23.196h6.814V70.41h-6.312L443.92 93.56V70.41h-6.814zm45.66-24.21v6.397H505v-.414c0-5.155-1.816-9.549-5.454-13.187-3.638-3.634-8.032-5.452-13.187-5.452-5.127 0-9.504 1.808-13.119 5.43-3.62 3.62-5.432 8.026-5.432 13.21 0 5.124 1.811 9.498 5.432 13.119 3.615 3.62 7.992 5.432 13.12 5.432 3.738 0 7.162-1.013 10.26-3.038 3.101-2.027 5.391-4.681 6.857-7.964h-7.913c-2.182 2.885-5.2 4.329-9.069 4.329-3.283 0-6.04-1.153-8.286-3.455-2.239-2.301-3.362-5.093-3.362-8.375 0-3.313 1.123-6.123 3.362-8.424 2.245-2.302 5.003-3.453 8.286-3.453 2.211 0 4.201.515 5.984 1.54 1.783 1.03 3.181 2.466 4.191 4.305z" fill="#33b652"/></g></svg>