<svg xmlns="http://www.w3.org/2000/svg" width="270.983" height="204.655" viewBox="0 0 270.98267 204.65466"><path d="M135.023 196.755c71.013 0 128.585-.928 128.585-2.063 0-1.146-57.57-2.066-128.586-2.066-71.018 0-128.584.92-128.584 2.066 0 1.135 57.566 2.063 128.585 2.063" fill="#0492d2" fill-rule="evenodd"/><path d="M70.03 152.024c-11.924-15.542-17.883-33.66-17.883-54.353 0-24.786 8.752-45.933 26.27-63.444C95.922 16.715 117.07 7.961 141.854 7.961c18.106 0 34.653 4.897 49.638 14.692 14.991 9.796 26.047 22.63 33.17 38.51h-38.288c-10.534-13.953-25.152-20.921-43.853-20.921-15.875 0-29.235 5.565-40.067 16.692-10.837 11.133-16.256 24.633-16.256 40.513 0 16.027 5.419 29.605 16.256 40.732a58.156 58.156 0 0 0 6.985 6.15c-9.178 3.111-18.472 5.485-27.557 6.76-3.33.471-7.483.88-11.853.934m152.51-56.353h9.472c0 26.15-7.72 47.115-26.38 65.774-17.587 17.588-38.848 26.385-63.777 26.385-19.542 0-36.82-5.446-51.843-16.333 16.92-3.247 33.988-9.267 49.94-16.667a65.153 65.153 0 0 0 2.57.05c10.684 0 20.332-2.484 28.938-7.455 8.606-4.977 15.362-11.913 20.257-20.819h-3.973c12.52-9.157 24.497-19.569 34.794-30.935" fill="#0492d2"/><path d="M124.49 126.604V95.67h68.12c-12.047 10.744-25.609 20.234-38.733 27.966a238.647 238.647 0 0 1-5.173 2.97z" fill="#0492d2"/><path d="M244.112 22.773c15.556 28.169-21.083 80.026-81.843 115.833-60.753 35.798-122.626 41.986-138.185 13.822-9.75-17.666 1.016-44.645 25.388-71.138a100.906 100.906 0 0 0-1.305 16.381c0 2.036.055 4.054.164 6.047-10.76 15.536-14.592 29.833-9.09 39.782 12.031 21.796 64.267 14.434 116.655-16.437C208.29 96.193 241 53.497 228.963 31.701c-5.24-9.484-18.092-13.447-35.254-12.355l-.04-.021c-6.728-4.4-13.756-7.843-21.069-10.348 34.161-7.962 61.817-3.748 71.51 13.796" fill="#33b652" fill-rule="evenodd"/></svg>